<svg width="148" height="35" viewBox="0 0 148 35" fill="none" xmlns="http://www.w3.org/2000/svg">
<path d="M43.101 10.036H46.831V25.116H43.101V10.036ZM48.31 19.422C48.31 15.692 50.598 13.467 54.128 13.467C57.658 13.467 59.946 15.692 59.946 19.422C59.946 23.152 57.708 25.389 54.128 25.389C50.548 25.389 48.31 23.214 48.31 19.423V19.422ZM56.204 19.422C56.204 17.371 55.396 16.165 54.128 16.165C52.86 16.165 52.064 17.408 52.064 19.422C52.064 21.436 52.847 22.654 54.128 22.654C55.409 22.654 56.204 21.51 56.204 19.434V19.422ZM61.351 25.849H64.931C65.1016 26.2276 65.3899 26.5409 65.753 26.7424C66.1161 26.9438 66.5345 27.0226 66.946 26.967C68.363 26.967 69.109 26.196 69.109 25.077V22.991H69.031C68.7339 23.6311 68.2517 24.1675 67.6467 24.531C67.0417 24.8944 66.3417 25.0682 65.637 25.03C62.914 25.03 61.112 22.954 61.112 19.386C61.112 15.818 62.831 13.567 65.69 13.567C66.4168 13.5386 67.1348 13.7329 67.748 14.1239C68.3612 14.515 68.8403 15.0841 69.121 15.755V13.679H72.851V24.992C72.851 27.715 70.451 29.405 66.908 29.405C63.613 29.405 61.562 27.926 61.351 25.862V25.849ZM69.121 19.409C69.121 17.594 68.288 16.45 66.97 16.45C65.652 16.45 64.844 17.581 64.844 19.409C64.844 21.237 65.644 22.268 66.97 22.268C68.296 22.268 69.121 21.267 69.121 19.423V19.409ZM74.255 19.409C74.255 15.679 76.543 13.454 80.073 13.454C83.603 13.454 85.904 15.679 85.904 19.409C85.904 23.139 83.666 25.376 80.073 25.376C76.48 25.376 74.255 23.213 74.255 19.421V19.409ZM82.149 19.409C82.149 17.358 81.341 16.152 80.073 16.152C78.805 16.152 78.073 17.408 78.073 19.434C78.073 21.46 78.856 22.666 80.124 22.666C81.392 22.666 82.15 21.51 82.15 19.434L82.149 19.409ZM87.322 10.967C87.3126 10.591 87.415 10.2206 87.6162 9.90288C87.8175 9.58511 88.1085 9.33422 88.4524 9.18199C88.7964 9.02976 89.1777 8.98303 89.5483 9.04773C89.9188 9.11243 90.2618 9.28565 90.5338 9.54544C90.8057 9.80523 90.9945 10.1399 91.0761 10.5071C91.1578 10.8742 91.1286 11.2573 90.9923 11.6079C90.856 11.9585 90.6187 12.2607 90.3105 12.4763C90.0023 12.6919 89.6371 12.8112 89.261 12.819C89.0114 12.8361 88.7608 12.8014 88.5252 12.7171C88.2896 12.6327 88.074 12.5006 87.8919 12.3289C87.7098 12.1572 87.5652 11.9497 87.4671 11.7195C87.369 11.4893 87.3197 11.2412 87.322 10.991V10.967ZM87.322 13.702H91.052V25.116H87.322V13.702ZM104.59 19.408C104.59 23.138 102.937 25.264 100.102 25.264C99.3752 25.3108 98.6516 25.1332 98.029 24.7553C97.4064 24.3774 96.9149 23.8174 96.621 23.151H96.546V28.767H92.816V13.679H96.546V15.718H96.621C96.9013 15.0407 97.3835 14.4662 98.0018 14.0725C98.6202 13.6789 99.3447 13.4853 100.077 13.518C102.936 13.568 104.64 15.706 104.64 19.436L104.59 19.408ZM100.86 19.408C100.86 17.593 100.027 16.437 98.722 16.437C97.417 16.437 96.584 17.606 96.571 19.408C96.558 21.21 97.416 22.367 98.722 22.367C100.028 22.367 100.86 21.236 100.86 19.433V19.408ZM110.992 13.441C114.092 13.441 115.965 14.908 116.052 17.258H112.658C112.658 16.45 111.987 15.94 110.958 15.94C109.929 15.94 109.466 16.34 109.466 16.922C109.466 17.504 109.876 17.693 110.709 17.867L113.096 18.352C115.371 18.837 116.341 19.752 116.341 21.485C116.341 23.847 114.19 25.364 111.02 25.364C107.85 25.364 105.774 23.847 105.612 21.522H109.205C109.317 22.367 109.988 22.865 111.082 22.865C112.176 22.865 112.673 22.504 112.673 21.908C112.673 21.312 112.325 21.187 111.43 21L109.279 20.54C107.054 20.08 105.885 18.899 105.885 17.158C105.91 14.92 107.911 13.466 110.995 13.466L110.992 13.441ZM128.782 25.09H125.189V22.967H125.114C124.917 23.6809 124.481 24.3058 123.88 24.7379C123.278 25.17 122.547 25.3831 121.807 25.342C121.24 25.3742 120.674 25.2843 120.145 25.0786C119.616 24.8728 119.137 24.556 118.741 24.1494C118.345 23.7428 118.041 23.256 117.849 22.7218C117.658 22.1877 117.583 21.6186 117.63 21.053V13.679H121.36V20.193C121.36 21.548 122.06 22.269 123.212 22.269C123.483 22.2699 123.752 22.2128 123.999 22.1014C124.246 21.99 124.467 21.8269 124.646 21.6231C124.825 21.4193 124.958 21.1796 125.037 20.92C125.116 20.6603 125.138 20.3869 125.102 20.118V13.678H128.832L128.782 25.09ZM130.582 13.677H134.187V15.877H134.262C134.46 15.1726 134.886 14.5538 135.473 14.1173C136.06 13.6809 136.776 13.4514 137.507 13.465C138.251 13.4054 138.99 13.628 139.578 14.0887C140.165 14.5493 140.558 15.2142 140.677 15.951H140.752C140.978 15.2063 141.446 14.558 142.081 14.1082C142.717 13.6585 143.483 13.4329 144.261 13.467C144.768 13.4498 145.274 13.5395 145.744 13.7304C146.214 13.9213 146.639 14.209 146.991 14.5749C147.343 14.9407 147.614 15.3766 147.786 15.854C147.958 16.3314 148.028 16.8398 147.991 17.346V25.116H144.261V18.341C144.261 17.098 143.702 16.526 142.661 16.526C142.428 16.5235 142.197 16.5712 141.984 16.6658C141.771 16.7605 141.58 16.8998 141.426 17.0744C141.271 17.249 141.156 17.4547 141.088 17.6778C141.02 17.9008 141 18.1358 141.031 18.367V25.118H137.488V18.291C137.488 17.147 136.929 16.526 135.909 16.526C135.673 16.526 135.441 16.576 135.226 16.6726C135.011 16.7692 134.819 16.9103 134.663 17.0866C134.507 17.2629 134.39 17.4703 134.32 17.6951C134.249 17.92 134.228 18.1572 134.256 18.391V25.117H130.526L130.582 13.677Z" fill="#B8B6C4"/>
<path d="M32.671 10.72C32.0383 9.27444 31.201 7.92734 30.185 6.71998C28.6837 4.87717 26.8088 3.37347 24.6841 2.308C22.5593 1.24253 20.2328 0.639478 17.858 0.538595C15.4832 0.437713 13.1139 0.84129 10.9064 1.72273C8.69893 2.60416 6.70331 3.94344 5.0511 5.65229C3.39889 7.36114 2.12761 9.40075 1.32105 11.6367C0.514493 13.8726 0.190972 16.2541 0.371814 18.6242C0.552655 20.9943 1.23375 23.2991 2.37021 25.3868C3.50667 27.4745 5.07268 29.2976 6.96503 30.736C8.17603 31.6768 9.51393 32.4417 10.939 33.008C12.9385 33.8273 15.0783 34.2494 17.239 34.251C21.7019 34.2425 25.9793 32.4647 29.1335 29.3074C32.2876 26.1501 34.0611 21.8709 34.065 17.408C34.0684 15.1064 33.5944 12.8291 32.673 10.72H32.671ZM17.23 3.96998C19.1709 3.96819 21.0886 4.39072 22.849 5.20798C22.4197 5.39333 21.9683 5.52272 21.506 5.59298C19.985 5.81315 18.5759 6.51932 17.4891 7.60608C16.4024 8.69284 15.6962 10.1019 15.476 11.623C15.3794 12.476 14.9915 13.2696 14.3778 13.8699C13.764 14.4702 12.962 14.8403 12.107 14.918C10.586 15.1381 9.17689 15.8443 8.09013 16.9311C7.00337 18.0178 6.2972 19.4269 6.07703 20.948C6.00247 21.759 5.65648 22.5211 5.09503 23.111C4.12718 21.0638 3.69277 18.8052 3.83223 16.5451C3.97168 14.285 4.68046 12.0969 5.89264 10.1842C7.10482 8.27161 8.78102 6.69662 10.7653 5.60575C12.7497 4.51489 14.9776 3.94358 17.242 3.94498L17.23 3.96998ZM6.94903 26.108C7.09803 25.971 7.24903 25.847 7.39703 25.698C8.50313 24.6255 9.21309 23.2099 9.41103 21.682C9.49134 20.823 9.87492 20.0208 10.493 19.419C11.0876 18.8002 11.8878 18.4201 12.743 18.35C14.2641 18.1298 15.6732 17.4236 16.7599 16.3369C17.8467 15.2501 18.5529 13.841 18.773 12.32C18.8268 11.4216 19.2124 10.5751 19.855 9.94498C20.4642 9.33808 21.2721 8.9716 22.13 8.91298C23.5274 8.72074 24.8307 8.09949 25.86 7.13498C27.032 8.1072 28.0249 9.27681 28.794 10.591C28.7467 10.6548 28.6923 10.7132 28.632 10.765C28.0387 11.3893 27.2395 11.7778 26.382 11.859C24.8595 12.0754 23.4483 12.7804 22.3609 13.8678C21.2735 14.9553 20.5685 16.3664 20.352 17.889C20.2644 18.7448 19.8836 19.5441 19.2742 20.1513C18.6648 20.7585 17.8642 21.1364 17.008 21.221C15.4826 21.4395 14.0683 22.1442 12.9753 23.2306C11.8823 24.3169 11.1689 25.7269 10.941 27.251C10.8738 27.8575 10.6652 28.4398 10.332 28.951C9.05628 28.195 7.91339 27.2345 6.94903 26.108ZM17.23 30.908C15.9684 30.9094 14.7128 30.7337 13.5 30.386C13.9163 29.6132 14.1875 28.7706 14.3 27.9C14.3872 27.046 14.7662 26.2482 15.3732 25.6412C15.9802 25.0342 16.778 24.6551 17.632 24.568C19.1553 24.3502 20.5671 23.6451 21.6562 22.5581C22.7453 21.4712 23.4532 20.0608 23.674 18.538C23.7615 17.685 24.1401 16.8881 24.7463 16.2816C25.3524 15.6751 26.1491 15.2959 27.002 15.208C28.1484 15.059 29.241 14.6323 30.185 13.965C30.7091 15.9516 30.7711 18.0318 30.3664 20.0461C29.9616 22.0604 29.1008 23.9552 27.8501 25.5852C26.5993 27.2152 24.9918 28.537 23.1509 29.4493C21.31 30.3616 19.2846 30.84 17.23 30.848V30.908Z" fill="#B8B6C4"/>
</svg>
