<svg width="158" height="38" viewBox="0 0 158 38" fill="none" xmlns="http://www.w3.org/2000/svg">
<path d="M44.743 11.7631H48.733V27.9251H44.743V11.7631ZM50.325 21.8451C50.325 17.8451 52.811 15.4451 56.541 15.4451C60.271 15.4451 62.757 17.8451 62.757 21.8451C62.757 25.8451 60.357 28.2721 56.541 28.2721C52.725 28.2721 50.325 25.9361 50.325 21.8461V21.8451ZM58.804 21.8451C58.804 19.6451 57.946 18.3521 56.579 18.3521C55.212 18.3521 54.366 19.5951 54.366 21.8451C54.366 24.0951 55.211 25.3261 56.579 25.3261C57.947 25.3261 58.829 24.0951 58.829 21.8571L58.804 21.8451ZM64.349 28.7571H68.203C68.3785 29.172 68.6849 29.518 69.0754 29.7424C69.466 29.9668 69.9192 30.0573 70.366 30.0001C71.895 30.0001 72.691 29.1791 72.691 27.9611V25.7251H72.703C72.3737 26.422 71.8411 27.0029 71.1753 27.3913C70.5095 27.7797 69.7417 27.9575 68.973 27.9011C66.051 27.9011 64.112 25.6761 64.112 21.8471C64.112 18.0181 65.964 15.6311 69.085 15.6311C69.8734 15.589 70.6555 15.7923 71.3236 16.2132C71.9916 16.6341 72.5127 17.2517 72.815 17.9811H72.703V15.7311H76.656V27.8381C76.656 30.7601 74.07 32.5871 70.266 32.5871C66.81 32.5751 64.597 30.9961 64.373 28.7701L64.349 28.7571ZM72.703 21.8451C72.703 19.8931 71.803 18.6621 70.391 18.6621C68.979 18.6621 68.103 19.9051 68.103 21.8451C68.103 23.7851 68.961 24.9281 70.391 24.9281C71.821 24.9281 72.703 23.8721 72.703 21.8461V21.8451ZM78.235 21.8451C78.235 17.8451 80.721 15.4451 84.451 15.4451C88.181 15.4451 90.667 17.8451 90.667 21.8451C90.667 25.8451 88.255 28.2721 84.451 28.2721C80.647 28.2721 78.26 25.9351 78.26 21.8451H78.235ZM86.714 21.8451C86.714 19.6451 85.844 18.3521 84.489 18.3521C83.134 18.3521 82.276 19.5951 82.276 21.8451C82.276 24.0951 83.121 25.3261 84.489 25.3261C85.857 25.3261 86.739 24.0951 86.739 21.8571L86.714 21.8451ZM92.283 12.7871C92.2656 12.3806 92.3703 11.9782 92.5835 11.6316C92.7968 11.2851 93.1088 11.0102 93.4795 10.8425C93.8502 10.6747 94.2627 10.6217 94.6637 10.6903C95.0648 10.7589 95.4362 10.9459 95.7302 11.2273C96.0241 11.5086 96.2271 11.8715 96.3131 12.2693C96.3991 12.667 96.3641 13.0813 96.2127 13.459C96.0612 13.8367 95.8002 14.1604 95.4633 14.3885C95.1264 14.6167 94.7289 14.7388 94.322 14.7391C94.062 14.7456 93.8033 14.7005 93.561 14.6063C93.3186 14.5121 93.0973 14.3707 92.91 14.1903C92.7226 14.01 92.5729 13.7942 92.4696 13.5556C92.3663 13.3169 92.3113 13.0602 92.308 12.8001L92.283 12.7871ZM92.283 15.7211H96.323V27.9751H92.346L92.283 15.7211ZM110.857 21.8501C110.857 25.8411 109.067 28.1501 106.021 28.1501C105.241 28.1983 104.465 28.0059 103.798 27.5991C103.131 27.1922 102.605 26.5905 102.291 25.8751H102.216V31.9171H98.226V15.7541H102.192V17.9421H102.267C102.57 17.2126 103.091 16.5944 103.759 16.1717C104.426 15.749 105.208 15.5424 105.997 15.5801C109.13 15.5551 110.933 17.8551 110.933 21.8581L110.857 21.8501ZM106.792 21.8501C106.792 19.9111 105.884 18.6501 104.48 18.6501C103.076 18.6501 102.192 19.8931 102.18 21.8501C102.168 23.8071 103.08 25.0331 104.48 25.0331C105.88 25.0331 106.867 23.8771 106.867 21.8631L106.792 21.8501ZM117.67 15.4351C121.014 15.4351 123.09 17.0141 123.115 19.5501H119.472C119.472 18.6671 118.738 18.1201 117.644 18.1201C116.55 18.1201 116.028 18.5431 116.028 19.1771C116.028 19.8111 116.488 20.0101 117.408 20.1961L119.969 20.7181C122.455 21.2401 123.45 22.2351 123.45 24.0871C123.45 26.5731 121.15 28.2641 117.731 28.2641C114.312 28.2641 112.087 26.6231 111.925 24.1241H115.791C115.903 25.0321 116.624 25.5661 117.791 25.5661C118.958 25.5661 119.507 25.1931 119.507 24.5341C119.507 23.8751 119.134 23.7631 118.177 23.5641L115.865 23.0791C113.465 22.5691 112.21 21.3141 112.21 19.4361C112.285 16.9991 114.373 15.4451 117.742 15.4451L117.67 15.4351ZM136.815 27.9671H132.949V25.6671H132.874C132.658 26.4343 132.186 27.1049 131.538 27.5683C130.889 28.0316 130.102 28.2602 129.306 28.2161C128.705 28.2356 128.107 28.1279 127.551 27.9C126.994 27.672 126.493 27.3291 126.078 26.8936C125.664 26.4581 125.346 25.9399 125.146 25.373C124.946 24.8061 124.868 24.2033 124.917 23.6041V15.7341H128.908V22.7461C128.908 24.1881 129.666 24.9711 130.908 24.9711C131.348 24.9674 131.774 24.8219 132.124 24.5564C132.475 24.2908 132.73 23.9193 132.852 23.4971C132.932 23.2167 132.951 22.9226 132.909 22.6341V15.7341H136.887L136.815 27.9671ZM138.742 15.7211H142.621V18.0831H142.708C142.922 17.3264 143.381 16.6621 144.013 16.1942C144.645 15.7263 145.415 15.4811 146.201 15.4971C146.99 15.4288 147.777 15.6573 148.407 16.1382C149.037 16.619 149.465 17.3175 149.607 18.0971H149.781C150.029 17.3132 150.529 16.6333 151.204 16.1631C151.879 15.6929 152.69 15.4588 153.511 15.4971C154.057 15.4765 154.601 15.5713 155.107 15.7753C155.614 15.9794 156.072 16.2881 156.451 16.6812C156.83 17.0743 157.122 17.5431 157.307 18.0568C157.493 18.5705 157.567 19.1175 157.527 19.6621V27.9791H153.511V20.6791C153.511 19.4361 152.927 18.7401 151.795 18.7401C151.544 18.7357 151.295 18.7858 151.065 18.8867C150.835 18.9877 150.63 19.1373 150.463 19.3251C150.297 19.513 150.173 19.7347 150.1 19.975C150.027 20.2152 150.008 20.4684 150.042 20.7171V27.9771H146.242V20.6401C146.242 19.3971 145.633 18.7401 144.542 18.7401C144.16 18.7366 143.787 18.8565 143.478 19.0821C143.17 19.3077 142.942 19.6269 142.83 19.9921C142.754 20.2341 142.732 20.4896 142.764 20.7411V27.9761H138.773L138.742 15.7211Z" fill="#B8B6C4"/>
<path d="M36.849 12.8201C36.8483 10.346 36.1004 7.92983 34.7034 5.88794C33.3063 3.84605 31.3253 2.27363 29.0195 1.37659C26.7138 0.479546 24.1909 0.299701 21.7813 0.860601C19.3717 1.4215 17.1875 2.697 15.515 4.52007H0V37.2621H32.759V21.9621C34.0448 20.812 35.0736 19.4038 35.7784 17.8292C36.4831 16.2546 36.8479 14.5492 36.849 12.8241V12.8201ZM30.549 12.8201C30.552 14.2066 30.0741 15.5513 29.1966 16.6249C28.3192 17.6985 27.0966 18.4346 25.7373 18.7077C24.3779 18.9808 22.9659 18.774 21.7419 18.1226C20.5179 17.4712 19.5577 16.4154 19.025 15.1353C18.4922 13.8552 18.4199 12.43 18.8203 11.1025C19.2208 9.77509 20.0692 8.62759 21.2209 7.85563C22.3727 7.08367 23.7565 6.73503 25.1366 6.86914C26.5166 7.00325 27.8074 7.6118 28.789 8.59107C29.9125 9.71208 30.5455 11.233 30.549 12.8201ZM26.459 30.9581H6.303V10.8181H12.444C12.3256 11.4783 12.2634 12.1473 12.258 12.8181C12.2601 16.0796 13.5567 19.2069 15.8629 21.5131C18.1692 23.8194 21.2965 25.116 24.558 25.1181C25.1946 25.1145 25.83 25.0603 26.458 24.9561L26.459 30.9581Z" fill="#B8B6C4"/>
</svg>
