<svg width="162" height="37" viewBox="0 0 162 37" fill="none" xmlns="http://www.w3.org/2000/svg">
<path d="M17.41 5.82099V0.536987H0.750977V36.837H17.41V31.555C15.7203 31.555 14.0471 31.2222 12.486 30.5755C10.9249 29.9289 9.50644 28.9811 8.31163 27.7863C7.11682 26.5915 6.16905 25.1731 5.52242 23.612C4.87579 22.0509 4.54298 20.3777 4.54298 18.688C4.54298 16.9983 4.87579 15.3251 5.52242 13.764C6.16905 12.2029 7.11682 10.7845 8.31163 9.58964C9.50644 8.39483 10.9249 7.44706 12.486 6.80043C14.0471 6.1538 15.7203 5.82099 17.41 5.82099Z" fill="#B8B6C4"/>
<path d="M17.41 5.82104V31.555C20.8225 31.555 24.0953 30.1994 26.5083 27.7864C28.9214 25.3734 30.277 22.1006 30.277 18.688C30.277 15.2755 28.9214 12.0027 26.5083 9.5897C24.0953 7.17667 20.8225 5.82104 17.41 5.82104Z" fill="#B8B6C4"/>
<path d="M39.626 9.05298H43.356V27.017H39.626V9.05298Z" fill="#B8B6C4"/>
<path d="M45.444 20.8639C45.444 19.5714 45.8278 18.3081 46.5466 17.2339C47.2654 16.1598 48.287 15.3232 49.4818 14.8303C50.6766 14.3374 51.9909 14.2103 53.258 14.4652C54.5251 14.72 55.688 15.3454 56.5994 16.2619C57.5107 17.1784 58.1294 18.3449 58.377 19.6134C58.6247 20.882 58.4901 22.1955 57.9905 23.3875C57.4908 24.5794 56.6484 25.5962 55.5702 26.309C54.492 27.0217 53.2264 27.3983 51.934 27.3909C51.0767 27.3977 50.2267 27.2332 49.4338 26.9071C48.641 26.581 47.9212 26.0999 47.3167 25.4919C46.7122 24.884 46.2352 24.1615 45.9136 23.3668C45.592 22.5721 45.4324 21.7212 45.444 20.8639ZM54.793 20.8639C54.7782 20.3069 54.5996 19.7666 54.2794 19.3105C53.9592 18.8544 53.5117 18.5029 52.9928 18.2998C52.4739 18.0968 51.9066 18.0512 51.3619 18.1688C50.8172 18.2864 50.3193 18.5619 49.9304 18.961C49.5415 19.36 49.2788 19.8649 49.1753 20.4124C49.0718 20.96 49.132 21.5259 49.3483 22.0394C49.5647 22.5529 49.9277 22.9912 50.3918 23.2996C50.856 23.6079 51.4007 23.7725 51.958 23.7729C52.3375 23.7804 52.7145 23.7094 53.0653 23.5646C53.4162 23.4197 53.7334 23.204 53.9971 22.931C54.2609 22.658 54.4654 22.3335 54.5981 21.9778C54.7307 21.6222 54.7885 21.243 54.768 20.8639H54.793Z" fill="#B8B6C4"/>
<path d="M73.181 14.7089V26.4089C73.181 30.5359 69.949 32.2889 66.681 32.2889C65.5275 32.3838 64.3703 32.1548 63.34 31.6276C62.3096 31.1004 61.4469 30.296 60.849 29.3049L63.994 27.4899C64.2489 28.0039 64.6544 28.4279 65.1564 28.7056C65.6584 28.9832 66.2332 29.1012 66.804 29.0439C67.1676 29.0889 67.5367 29.0528 67.8849 28.9384C68.233 28.824 68.5515 28.6341 68.8176 28.3822C69.0837 28.1303 69.2909 27.8227 69.4242 27.4814C69.5576 27.1401 69.6139 26.7735 69.589 26.4079V25.2769C69.1549 25.8031 68.6042 26.2208 67.9805 26.497C67.3568 26.7732 66.6773 26.9002 65.996 26.8679C64.3474 26.8679 62.7663 26.213 61.6006 25.0473C60.4349 23.8816 59.78 22.3005 59.78 20.6519C59.78 19.0034 60.4349 17.4223 61.6006 16.2566C62.7663 15.0908 64.3474 14.4359 65.996 14.4359C66.6773 14.4037 67.3568 14.5307 67.9805 14.8069C68.6042 15.083 69.1549 15.5008 69.589 16.0269V14.7839L73.181 14.7089ZM69.588 20.6149C69.6129 20.0201 69.4593 19.4313 69.147 18.9245C68.8346 18.4176 68.3778 18.0157 67.8352 17.7706C67.2926 17.5255 66.6891 17.4482 66.1023 17.5489C65.5154 17.6495 64.9721 17.9234 64.5422 18.3353C64.1123 18.7472 63.8154 19.2783 63.6898 19.8603C63.5642 20.4423 63.6155 21.0485 63.8372 21.6011C64.0589 22.1537 64.4408 22.6273 64.9339 22.961C65.427 23.2948 66.0086 23.4734 66.604 23.4739C66.9924 23.5019 67.3824 23.4481 67.7487 23.3161C68.1151 23.184 68.4497 22.9765 68.7309 22.7071C69.0121 22.4377 69.2337 22.1123 69.3813 21.7519C69.5289 21.3915 69.5993 21.0042 69.588 20.6149Z" fill="#B8B6C4"/>
<path d="M75.281 20.864C75.281 19.5726 75.6641 18.3101 76.3819 17.2365C77.0997 16.1628 78.1198 15.3263 79.3132 14.8326C80.5066 14.339 81.8197 14.2105 83.0861 14.4634C84.3526 14.7163 85.5156 15.3392 86.4279 16.2534C87.3402 17.1675 87.9608 18.3317 88.2111 19.5987C88.4615 20.8656 88.3304 22.1784 87.8344 23.3708C87.3384 24.5632 86.4998 25.5817 85.4247 26.2974C84.3497 27.013 83.0864 27.3936 81.795 27.391C80.9361 27.3993 80.0843 27.2361 79.2894 26.9109C78.4944 26.5856 77.7725 26.105 77.1657 25.497C76.559 24.8891 76.0798 24.1662 75.7562 23.3706C75.4325 22.575 75.271 21.7228 75.281 20.864ZM84.63 20.864C84.6154 20.3061 84.4365 19.765 84.1157 19.3083C83.7949 18.8517 83.3464 18.4999 82.8266 18.297C82.3067 18.0941 81.7385 18.0492 81.1932 18.1679C80.6478 18.2865 80.1497 18.5635 79.7611 18.9641C79.3725 19.3646 79.1108 19.871 79.0088 20.4196C78.9067 20.9683 78.9688 21.5349 79.1874 22.0483C79.406 22.5618 79.7712 22.9994 80.2374 23.3062C80.7036 23.613 81.2499 23.7754 81.808 23.773C82.1875 23.7805 82.5645 23.7095 82.9153 23.5647C83.2662 23.4198 83.5834 23.2041 83.8471 22.9311C84.1109 22.6581 84.3154 22.3336 84.4481 21.9779C84.5807 21.6223 84.6385 21.2431 84.618 20.864H84.63Z" fill="#B8B6C4"/>
<path d="M90.038 11.4149C90.0388 10.9774 90.1692 10.5499 90.4129 10.1865C90.6565 9.82315 91.0024 9.54013 91.4069 9.37324C91.8113 9.20636 92.2561 9.1631 92.6852 9.24894C93.1142 9.33479 93.5081 9.54587 93.8172 9.85552C94.1263 10.1652 94.3367 10.5595 94.4217 10.9887C94.5068 11.4178 94.4627 11.8626 94.2951 12.2667C94.1275 12.6709 93.8439 13.0163 93.48 13.2593C93.1162 13.5022 92.6885 13.6319 92.251 13.6319C91.6661 13.6254 91.107 13.3902 90.6933 12.9766C90.2797 12.563 90.0445 12.0038 90.038 11.4189V11.4149ZM90.399 14.7099H94.129V27.0169H90.399V14.7099Z" fill="#B8B6C4"/>
<path d="M110.091 20.864C110.133 21.6825 110.012 22.5012 109.737 23.2731C109.461 24.0449 109.035 24.7545 108.484 25.3611C107.933 25.9677 107.267 26.4594 106.525 26.8078C105.783 27.1561 104.98 27.3543 104.161 27.391C103.466 27.4378 102.77 27.3273 102.124 27.0676C101.479 26.8078 100.9 26.4056 100.431 25.891V31.97H96.702V14.71H100.432V15.866C100.901 15.3521 101.48 14.951 102.126 14.6926C102.772 14.4342 103.468 14.3253 104.162 14.374C104.978 14.4107 105.778 14.6077 106.517 14.9538C107.257 15.2998 107.921 15.7881 108.471 16.3907C109.022 16.9934 109.448 17.6986 109.727 18.4662C110.005 19.2337 110.129 20.0485 110.092 20.864H110.091ZM106.361 20.864C106.346 20.2866 106.161 19.7264 105.83 19.2536C105.498 18.7809 105.034 18.4165 104.496 18.2063C103.958 17.996 103.37 17.9492 102.806 18.0718C102.241 18.1943 101.725 18.4806 101.323 18.895C100.921 19.3093 100.65 19.8332 100.544 20.401C100.438 20.9688 100.502 21.5552 100.728 22.0867C100.954 22.6183 101.331 23.0713 101.814 23.3891C102.296 23.7068 102.861 23.8751 103.439 23.873C103.835 23.8898 104.229 23.8228 104.597 23.6763C104.965 23.5298 105.298 23.3072 105.574 23.0231C105.85 22.739 106.063 22.3998 106.198 22.0277C106.334 21.6556 106.389 21.259 106.361 20.864Z" fill="#B8B6C4"/>
<path d="M121.442 23.325C121.442 26.16 118.956 27.365 116.32 27.365C115.244 27.4619 114.165 27.2342 113.22 26.7112C112.275 26.1882 111.509 25.3939 111.02 24.431L114.227 22.616C114.354 23.0596 114.629 23.4462 115.007 23.7111C115.385 23.9759 115.843 24.103 116.303 24.071C117.186 24.071 117.633 23.797 117.633 23.3C117.633 21.945 111.579 22.666 111.579 18.4C111.579 15.715 113.842 14.372 116.403 14.372C117.376 14.3289 118.343 14.55 119.201 15.0118C120.059 15.4736 120.776 16.1588 121.276 16.995L118.074 18.688C117.932 18.3672 117.701 18.0944 117.408 17.9024C117.114 17.7103 116.772 17.6074 116.421 17.606C115.775 17.606 115.389 17.855 115.389 18.29C115.388 19.707 121.442 18.775 121.442 23.325Z" fill="#B8B6C4"/>
<path d="M134.956 14.71V27.018H131.226V25.862C130.802 26.3738 130.264 26.7789 129.655 27.0445C129.046 27.3101 128.383 27.4288 127.72 27.391C125.234 27.391 123.108 25.613 123.108 22.291V14.71H126.838V21.734C126.808 22.0275 126.842 22.3241 126.938 22.603C127.083 23.0235 127.362 23.3848 127.732 23.632C128.102 23.8792 128.543 23.9986 128.987 23.972C129.31 23.9916 129.633 23.9391 129.933 23.8182C130.233 23.6973 130.503 23.511 130.722 23.2729C130.941 23.0348 131.104 22.7509 131.2 22.4418C131.296 22.1327 131.321 21.8062 131.275 21.486V14.71H134.956Z" fill="#B8B6C4"/>
<path d="M156.091 19.458V27.017H152.357V19.781C152.357 18.538 151.773 17.767 150.592 17.767C149.411 17.767 148.665 18.625 148.665 20.079V27.016H144.935V19.781C144.935 18.538 144.351 17.767 143.17 17.767C141.989 17.767 141.243 18.625 141.243 20.079V27.016H137.513V14.709H141.243V15.841C141.629 15.3412 142.134 14.9455 142.711 14.6894C143.288 14.4332 143.92 14.3249 144.55 14.374C145.181 14.3411 145.809 14.4728 146.374 14.7561C146.938 15.0394 147.419 15.4646 147.77 15.99C148.18 15.4413 148.722 15.0052 149.346 14.7226C149.97 14.4401 150.655 14.3201 151.338 14.374C154.251 14.373 156.091 16.387 156.091 19.458Z" fill="#B8B6C4"/>
<path d="M159.223 14.635C159.764 14.635 160.293 14.4746 160.742 14.1741C161.192 13.8736 161.543 13.4464 161.75 12.9467C161.957 12.4469 162.011 11.897 161.905 11.3665C161.8 10.8359 161.539 10.3486 161.157 9.9661C160.774 9.58361 160.287 9.32312 159.757 9.21759C159.226 9.11206 158.676 9.16622 158.176 9.37323C157.677 9.58024 157.249 9.93079 156.949 10.3806C156.648 10.8303 156.488 11.3591 156.488 11.9C156.488 12.6254 156.776 13.3211 157.289 13.834C157.802 14.3469 158.498 14.635 159.223 14.635Z" fill="#B8B6C4"/>
</svg>
