<svg width="147" height="30" viewBox="0 0 147 30" fill="none" xmlns="http://www.w3.org/2000/svg">
<path d="M47.254 24.413C46.5142 24.4521 45.7829 24.2407 45.178 23.813C44.925 23.6255 44.7215 23.3791 44.5851 23.0953C44.4487 22.8115 44.3834 22.4987 44.395 22.184V10.663C44.3888 10.6141 44.3939 10.5645 44.4099 10.5178C44.4258 10.4712 44.4522 10.4289 44.4871 10.394C44.5219 10.3592 44.5643 10.3328 44.6109 10.3168C44.6575 10.3009 44.7071 10.2958 44.756 10.302H46.844C47.08 10.302 47.192 10.426 47.192 10.663V21.292C47.192 21.764 47.403 22.001 47.838 22.001C48.0225 22.0087 48.207 21.9878 48.385 21.939C48.634 21.939 48.77 22.014 48.785 22.239L48.971 23.793C48.98 23.8384 48.979 23.8852 48.9683 23.9302C48.9576 23.9753 48.9373 24.0175 48.9089 24.054C48.8804 24.0905 48.8445 24.1204 48.8034 24.1418C48.7624 24.1632 48.7172 24.1756 48.671 24.178C48.2136 24.3287 47.7356 24.408 47.254 24.413Z" fill="#B8B6C4"/>
<path d="M59.002 23.082C57.9525 23.949 56.6338 24.4232 55.2725 24.4232C53.9113 24.4232 52.5925 23.949 51.543 23.082C50.6204 22.1508 50.1028 20.8929 50.1028 19.582C50.1028 18.2711 50.6204 17.0133 51.543 16.082C52.5945 15.2194 53.9125 14.7479 55.2725 14.7479C56.6326 14.7479 57.9506 15.2194 59.002 16.082C59.9033 17.0217 60.4066 18.2734 60.4066 19.5755C60.4066 20.8776 59.9033 22.1293 59.002 23.069V23.082ZM53.507 21.441C53.9941 21.8823 54.6278 22.1267 55.285 22.1267C55.9423 22.1267 56.576 21.8823 57.063 21.441C57.5038 20.9342 57.7465 20.2852 57.7465 19.6135C57.7465 18.9419 57.5038 18.2928 57.063 17.786C56.576 17.3447 55.9423 17.1003 55.285 17.1003C54.6278 17.1003 53.9941 17.3447 53.507 17.786C53.0663 18.2928 52.8236 18.9419 52.8236 19.6135C52.8236 20.2852 53.0663 20.9342 53.507 21.441Z" fill="#B8B6C4"/>
<path d="M71.907 15.063C72.143 15.063 72.255 15.187 72.255 15.424V24.338C72.2775 24.9404 72.1652 25.5403 71.9265 26.0939C71.6878 26.6475 71.3286 27.1408 70.875 27.538C69.8697 28.3951 68.5768 28.8393 67.257 28.781C66.065 28.823 64.8889 28.4976 63.888 27.849C63.4606 27.5684 63.0954 27.2029 62.8152 26.7752C62.535 26.3476 62.3457 25.8669 62.259 25.363C62.259 25.114 62.259 25.002 62.595 25.002H64.684C64.7727 25.0051 64.8585 25.0337 64.9313 25.0844C65.004 25.1352 65.0605 25.2059 65.094 25.288C65.2293 25.6656 65.4992 25.98 65.852 26.171C66.2819 26.3927 66.7604 26.5038 67.244 26.494C67.5353 26.5095 67.8268 26.4669 68.1015 26.3687C68.3762 26.2705 68.6286 26.1186 68.844 25.922C69.0412 25.7158 69.1947 25.4718 69.295 25.2047C69.3954 24.9377 69.4406 24.653 69.428 24.368V23.585C68.6802 24.135 67.77 24.4194 66.842 24.393C66.1925 24.4167 65.5449 24.3089 64.9382 24.076C64.3314 23.8432 63.7779 23.4901 63.311 23.038C62.4148 22.1107 61.9139 20.8716 61.9139 19.582C61.9139 18.2924 62.4148 17.0533 63.311 16.126C63.7802 15.6779 64.3343 15.3282 64.9407 15.0975C65.5472 14.8669 66.1936 14.7599 66.842 14.783C67.7968 14.7578 68.7314 15.0606 69.49 15.641V15.441C69.4842 15.3933 69.4891 15.3449 69.5043 15.2994C69.5196 15.2538 69.5448 15.2122 69.5781 15.1776C69.6114 15.1431 69.6521 15.1164 69.697 15.0995C69.742 15.0826 69.7902 15.0759 69.838 15.08L71.907 15.063ZM67.083 22.174C67.4027 22.1835 67.7206 22.1228 68.0144 21.9961C68.3081 21.8695 68.5705 21.68 68.783 21.441C69.1964 20.9072 69.4207 20.2511 69.4207 19.576C69.4207 18.9008 69.1964 18.2448 68.783 17.711C68.5709 17.4746 68.3096 17.2876 68.0174 17.163C67.7253 17.0385 67.4094 16.9794 67.092 16.99C66.7681 16.9798 66.4458 17.04 66.1475 17.1666C65.8491 17.2931 65.5818 17.483 65.364 17.723C64.9062 18.2337 64.6656 18.9027 64.693 19.588C64.6708 20.2664 64.9062 20.9281 65.352 21.44C65.5703 21.6794 65.8377 21.8688 66.1359 21.9953C66.4342 22.1218 66.7562 22.1824 67.08 22.173L67.083 22.174Z" fill="#B8B6C4"/>
<path d="M82.979 23.082C81.9276 23.9446 80.6096 24.4161 79.2495 24.4161C77.8895 24.4161 76.5715 23.9446 75.52 23.082C74.6179 22.1401 74.1143 20.8862 74.1143 19.582C74.1143 18.2778 74.6179 17.0239 75.52 16.082C76.5726 15.2217 77.8901 14.7517 79.2495 14.7517C80.6089 14.7517 81.9265 15.2217 82.979 16.082C83.8803 17.0217 84.3836 18.2734 84.3836 19.5755C84.3836 20.8776 83.8803 22.1293 82.979 23.069V23.082ZM77.479 21.441C77.9633 21.8926 78.6009 22.1437 79.263 22.1437C79.9252 22.1437 80.5627 21.8926 81.047 21.441C81.4806 20.9308 81.7187 20.2831 81.7187 19.6135C81.7187 18.9439 81.4806 18.2962 81.047 17.786C80.5627 17.3344 79.9252 17.0833 79.263 17.0833C78.6009 17.0833 77.9633 17.3344 77.479 17.786C77.0454 18.2962 76.8074 18.9439 76.8074 19.6135C76.8074 20.2831 77.0454 20.9308 77.479 21.441Z" fill="#B8B6C4"/>
<path d="M88.877 12.952C88.5486 13.2403 88.1265 13.3992 87.6895 13.3992C87.2525 13.3992 86.8304 13.2403 86.502 12.952C86.3525 12.8117 86.2333 12.6422 86.1518 12.4541C86.0703 12.2659 86.0283 12.063 86.0283 11.858C86.0283 11.6529 86.0703 11.45 86.1518 11.2619C86.2333 11.0737 86.3525 10.9043 86.502 10.764C86.8341 10.4834 87.2548 10.3295 87.6895 10.3295C88.1243 10.3295 88.5449 10.4834 88.877 10.764C89.0266 10.9043 89.1458 11.0737 89.2273 11.2619C89.3087 11.45 89.3508 11.6529 89.3508 11.858C89.3508 12.063 89.3087 12.2659 89.2273 12.4541C89.1458 12.6422 89.0266 12.8117 88.877 12.952ZM89.138 24.414C88.3987 24.4492 87.6686 24.2382 87.062 23.814C86.8129 23.6236 86.6129 23.3765 86.4788 23.0931C86.3446 22.8097 86.2803 22.4983 86.291 22.185V15.424C86.2848 15.3751 86.2899 15.3254 86.3059 15.2788C86.3218 15.2322 86.3482 15.1899 86.3831 15.155C86.4179 15.1202 86.4603 15.0938 86.5069 15.0778C86.5535 15.0619 86.6031 15.0568 86.652 15.063H88.74C88.976 15.063 89.088 15.187 89.088 15.424V21.292C89.088 21.7646 89.2994 22.001 89.722 22.001C89.9104 22.0078 90.0987 21.9869 90.281 21.939C90.53 21.939 90.666 22.014 90.681 22.239L90.867 23.793C90.876 23.8384 90.8751 23.8852 90.8643 23.9302C90.8536 23.9752 90.8333 24.0174 90.8049 24.0539C90.7765 24.0904 90.7405 24.1204 90.6994 24.1418C90.6584 24.1632 90.6132 24.1755 90.567 24.178C90.1056 24.3292 89.6236 24.4081 89.138 24.412V24.414Z" fill="#B8B6C4"/>
<path d="M98.549 14.7649C99.2015 14.7391 99.8525 14.8447 100.463 15.0754C101.074 15.3061 101.633 15.6572 102.105 16.1079C102.984 17.0518 103.472 18.2934 103.472 19.5829C103.472 20.8724 102.984 22.1141 102.105 23.0579C101.635 23.5125 101.077 23.867 100.466 24.0999C99.8547 24.3328 99.2026 24.4393 98.549 24.4129C97.6175 24.4341 96.7045 24.1504 95.949 23.6049V28.0929C95.949 28.3289 95.825 28.4409 95.588 28.4409H93.499C93.4515 28.4494 93.4025 28.4463 93.3564 28.4318C93.3103 28.4173 93.2684 28.3919 93.2342 28.3577C93.2001 28.3235 93.1747 28.2816 93.1602 28.2355C93.1457 28.1894 93.1426 28.1405 93.151 28.0929V17.8979C93.1655 17.7983 93.1564 17.6967 93.1247 17.6012C93.093 17.5057 93.0394 17.4189 92.9682 17.3478C92.897 17.2766 92.8103 17.223 92.7147 17.1913C92.6192 17.1595 92.5176 17.1505 92.418 17.1649H92.008C91.7347 17.1649 91.598 17.0649 91.598 16.8649V15.3989C91.5921 15.3083 91.6171 15.2183 91.6691 15.1437C91.7211 15.0692 91.7969 15.0146 91.884 14.9889C92.3142 14.8325 92.7694 14.7566 93.227 14.7649C93.6832 14.7246 94.141 14.8213 94.5419 15.0428C94.9427 15.2642 95.2684 15.6003 95.477 16.0079C95.8775 15.6029 96.3564 15.2837 96.8845 15.07C97.4125 14.8563 97.9785 14.7525 98.548 14.7649H98.549ZM96.609 21.4409C96.8307 21.6726 97.0969 21.857 97.3918 21.983C97.6866 22.109 98.0039 22.1739 98.3245 22.1739C98.6452 22.1739 98.9625 22.109 99.2573 21.983C99.5521 21.857 99.8184 21.6726 100.04 21.4409C100.507 20.9207 100.752 20.2391 100.724 19.5409C100.756 18.8421 100.51 18.1591 100.04 17.6409C99.8183 17.4094 99.552 17.2251 99.2572 17.0992C98.9624 16.9733 98.6451 16.9084 98.3245 16.9084C98.004 16.9084 97.6867 16.9733 97.3919 17.0992C97.097 17.2251 96.8307 17.4094 96.609 17.6409C96.1572 18.1682 95.9217 18.8471 95.95 19.5409C95.9254 20.2342 96.1604 20.9118 96.609 21.4409Z" fill="#B8B6C4"/>
<path d="M109.339 24.409C108.221 24.4558 107.113 24.1887 106.139 23.638C105.749 23.4031 105.417 23.0833 105.167 22.7025C104.917 22.3216 104.757 21.8894 104.697 21.438C104.697 21.189 104.784 21.065 105.058 21.065H106.886C106.973 21.0685 107.057 21.096 107.13 21.1443C107.202 21.1927 107.259 21.26 107.296 21.339C107.557 22.01 108.241 22.346 109.335 22.346C109.716 22.3633 110.096 22.2864 110.441 22.122C110.56 22.0683 110.662 21.9833 110.737 21.876C110.811 21.7688 110.855 21.6433 110.864 21.513C110.864 21.19 110.664 20.966 110.264 20.813C109.792 20.6558 109.304 20.5515 108.809 20.502C108.223 20.4356 107.641 20.3317 107.068 20.191C106.511 20.065 106.004 19.7748 105.613 19.358C105.383 19.0747 105.214 18.7471 105.116 18.3956C105.018 18.0441 104.993 17.6762 105.043 17.3147C105.093 16.9533 105.217 16.606 105.407 16.2945C105.597 15.983 105.85 15.7139 106.148 15.504C107.044 14.9316 108.095 14.652 109.157 14.704C110.184 14.6694 111.201 14.9233 112.091 15.437C112.452 15.641 112.762 15.9232 112.999 16.2629C113.237 16.6026 113.395 16.9912 113.462 17.4C113.462 17.6487 113.35 17.773 113.126 17.773H111.286C111.209 17.7776 111.131 17.7587 111.065 17.7187C110.998 17.6788 110.945 17.6196 110.913 17.549C110.79 17.2546 110.559 17.0187 110.267 16.89C109.938 16.7176 109.57 16.6319 109.198 16.641C108.834 16.6211 108.47 16.6937 108.141 16.852C108.025 16.8964 107.925 16.9746 107.853 17.0766C107.782 17.1786 107.743 17.2996 107.741 17.424C107.75 17.5942 107.813 17.757 107.921 17.8889C108.029 18.0207 108.176 18.1146 108.341 18.157C108.818 18.337 109.314 18.4621 109.82 18.53C110.401 18.6065 110.978 18.7143 111.548 18.853C112.105 18.9791 112.612 19.2692 113.003 19.686C113.212 19.9152 113.373 20.1834 113.477 20.4752C113.582 20.7669 113.628 21.0765 113.612 21.386C113.624 21.816 113.525 22.2418 113.323 22.6218C113.122 23.0018 112.825 23.323 112.462 23.554C111.532 24.1499 110.443 24.4481 109.339 24.409Z" fill="#B8B6C4"/>
<path d="M126.753 23.791C126.762 23.8349 126.762 23.8801 126.753 23.924C126.742 23.9674 126.723 24.0082 126.696 24.044C126.669 24.0803 126.635 24.1106 126.596 24.133C126.557 24.156 126.515 24.1709 126.47 24.177C126.018 24.3246 125.546 24.4042 125.07 24.413C124.598 24.4618 124.121 24.3878 123.685 24.1983C123.249 24.0087 122.87 23.71 122.584 23.331C121.706 24.0861 120.571 24.4737 119.414 24.413C118.877 24.4377 118.341 24.3498 117.84 24.1551C117.339 23.9603 116.884 23.6629 116.505 23.282C116.128 22.8823 115.836 22.4105 115.646 21.8949C115.456 21.3794 115.372 20.8308 115.399 20.282V15.424C115.399 15.188 115.511 15.063 115.747 15.063H117.836C118.072 15.063 118.184 15.187 118.184 15.424V19.912C118.161 20.4712 118.353 21.0179 118.719 21.441C118.902 21.6349 119.124 21.7873 119.371 21.8881C119.617 21.9888 119.883 22.0355 120.149 22.025C120.422 22.0369 120.694 21.9947 120.95 21.9008C121.206 21.8069 121.441 21.6632 121.641 21.478C121.83 21.2826 121.977 21.0506 122.073 20.7963C122.17 20.5419 122.213 20.2706 122.2 19.999V15.424C122.2 15.188 122.312 15.063 122.548 15.063H124.653C124.889 15.063 125.001 15.187 125.001 15.424V21.279C125.001 21.764 125.212 22 125.623 22C125.816 22.0075 126.008 21.9867 126.195 21.938C126.242 21.925 126.291 21.9227 126.339 21.9313C126.387 21.94 126.433 21.9594 126.472 21.988C126.513 22.0163 126.547 22.0535 126.572 22.097C126.594 22.1402 126.607 22.1875 126.609 22.236L126.753 23.791Z" fill="#B8B6C4"/>
<path d="M146.512 23.791C146.522 23.8358 146.522 23.8822 146.512 23.927C146.502 23.9718 146.483 24.0141 146.456 24.051C146.43 24.0877 146.396 24.1181 146.356 24.14C146.316 24.1619 146.271 24.1742 146.225 24.176C145.763 24.3263 145.281 24.4059 144.795 24.412C144.055 24.4492 143.325 24.238 142.719 23.812C142.457 23.6299 142.244 23.386 142.099 23.1018C141.953 22.8177 141.88 22.5021 141.886 22.183V19.266C141.912 18.7086 141.726 18.162 141.364 17.737C141.19 17.5427 140.974 17.3896 140.734 17.2886C140.493 17.1876 140.233 17.1413 139.972 17.153C139.737 17.1441 139.503 17.1887 139.288 17.2835C139.072 17.3782 138.881 17.5207 138.729 17.7C138.401 18.1166 138.233 18.6373 138.257 19.167V23.754C138.257 23.99 138.145 24.115 137.909 24.115H135.809C135.76 24.1212 135.711 24.1161 135.664 24.1002C135.617 24.0842 135.575 24.0578 135.54 24.023C135.505 23.9881 135.479 23.9458 135.463 23.8992C135.447 23.8525 135.442 23.8029 135.448 23.754V19.266C135.475 18.7147 135.303 18.172 134.963 17.737C134.811 17.5545 134.621 17.4076 134.407 17.3067C134.192 17.2058 133.957 17.1533 133.72 17.153C133.466 17.1425 133.213 17.1859 132.978 17.2801C132.742 17.3744 132.529 17.5175 132.352 17.7C131.996 18.1034 131.813 18.6301 131.842 19.167V23.754C131.848 23.8029 131.843 23.8525 131.827 23.899C131.811 23.9453 131.785 23.9874 131.75 24.022C131.715 24.0566 131.673 24.083 131.627 24.099C131.58 24.1148 131.531 24.12 131.482 24.114H129.456C129.22 24.114 129.108 23.99 129.108 23.753V17.898C129.123 17.7983 129.114 17.6965 129.082 17.6008C129.05 17.5052 128.996 17.4183 128.925 17.347C128.854 17.2756 128.767 17.2219 128.671 17.1901C128.576 17.1584 128.474 17.1494 128.374 17.164H127.964C127.691 17.164 127.554 17.064 127.554 16.864V15.399C127.548 15.3084 127.573 15.2184 127.625 15.1438C127.677 15.0693 127.753 15.0147 127.84 14.989C128.27 14.8327 128.725 14.7567 129.183 14.765C129.622 14.7276 130.063 14.8151 130.455 15.0176C130.846 15.22 131.173 15.529 131.396 15.909C131.815 15.5113 132.312 15.2044 132.856 15.0076C133.399 14.8107 133.977 14.7282 134.554 14.765C135.114 14.7377 135.673 14.8428 136.185 15.0718C136.696 15.3008 137.147 15.6472 137.5 16.083C137.911 15.6357 138.417 15.2854 138.98 15.0574C139.543 14.8295 140.15 14.7296 140.757 14.765C141.3 14.7398 141.841 14.8273 142.349 15.0219C142.856 15.2166 143.317 15.5142 143.703 15.896C144.081 16.2951 144.374 16.7668 144.564 17.2825C144.754 17.7982 144.837 18.3471 144.809 18.896V21.296C144.809 21.768 145.02 22.005 145.418 22.005C145.611 22.0141 145.804 21.9931 145.99 21.943C146.247 21.943 146.384 22.043 146.4 22.243L146.512 23.791Z" fill="#B8B6C4"/>
<path d="M0.733023 13.447C1.6506 9.7608 3.77496 6.48753 6.76791 4.14826C9.76086 1.80899 13.4503 0.538208 17.249 0.538208C21.0477 0.538208 24.7372 1.80899 27.7301 4.14826C30.7231 6.48753 32.8474 9.7608 33.765 13.447H32.273C29.756 13.4098 27.2906 14.162 25.223 15.598C25.1037 15.6843 24.9791 15.7631 24.85 15.834H24.676C24.5469 15.7631 24.4223 15.6843 24.303 15.598C22.2174 14.1957 19.7612 13.4467 17.248 13.4467C14.7348 13.4467 12.2786 14.1957 10.193 15.598C10.0737 15.6843 9.94913 15.7631 9.82002 15.834H9.64602C9.51691 15.7631 9.39234 15.6843 9.27302 15.598C7.20547 14.162 4.74004 13.4098 2.22302 13.447H0.733023ZM29.588 21.242C30.3537 20.6456 31.3028 20.3335 32.273 20.359H34.273V16.369H32.273C30.564 16.3485 28.8941 16.8806 27.512 17.886C26.7341 18.4596 25.793 18.769 24.8265 18.769C23.86 18.769 22.9189 18.4596 22.141 17.886C20.7236 16.8993 19.038 16.3704 17.311 16.3704C15.584 16.3704 13.8984 16.8993 12.481 17.886C11.7031 18.4596 10.762 18.769 9.79552 18.769C8.82902 18.769 7.88791 18.4596 7.11002 17.886C5.71059 16.8676 4.01646 16.3348 2.28602 16.369H0.223022V20.36H2.22302C3.19328 20.3345 4.14231 20.6466 4.90802 21.243C6.32278 22.2302 8.00638 22.7595 9.73152 22.7595C11.4567 22.7595 13.1403 22.2302 14.555 21.243C15.3217 20.6484 16.2701 20.3365 17.24 20.36C18.2106 20.3324 19.1603 20.6447 19.925 21.243C21.3424 22.2297 23.028 22.7586 24.755 22.7586C26.482 22.7586 28.1676 22.2297 29.585 21.243L29.588 21.242ZM29.588 28.378C30.3537 27.7816 31.3028 27.4695 32.273 27.495H34.273V23.505H32.273C30.564 23.4845 28.8941 24.0166 27.512 25.022C26.7341 25.5956 25.793 25.905 24.8265 25.905C23.86 25.905 22.9189 25.5956 22.141 25.022C20.7236 24.0353 19.038 23.5064 17.311 23.5064C15.584 23.5064 13.8984 24.0353 12.481 25.022C11.7031 25.5956 10.762 25.905 9.79552 25.905C8.82902 25.905 7.88791 25.5956 7.11002 25.022C5.71059 24.0036 4.01646 23.4708 2.28602 23.505H0.223022V27.496H2.22302C3.19328 27.4705 4.14231 27.7826 4.90802 28.379C6.32278 29.3662 8.00638 29.8955 9.73152 29.8955C11.4567 29.8955 13.1403 29.3662 14.555 28.379C15.3217 27.7844 16.2701 27.4725 17.24 27.496C18.2106 27.4684 19.1603 27.7807 19.925 28.379C21.3424 29.3657 23.028 29.8946 24.755 29.8946C26.482 29.8946 28.1676 29.3657 29.585 28.379L29.588 28.378Z" fill="#B8B6C4"/>
</svg>
