<svg width="159" height="42" viewBox="0 0 159 42" fill="none" xmlns="http://www.w3.org/2000/svg">
<path d="M26.458 10.272H28.944V27.577H36.403V30.063H26.458V10.272ZM44.149 10.272C46.0004 10.272 47.7856 10.9607 49.1573 12.204C50.5291 13.4474 51.3894 15.1565 51.5709 16.9989C51.7523 18.8414 51.242 20.6855 50.1392 22.1726C49.0363 23.6596 47.4198 24.6834 45.604 25.0446C43.7882 25.4059 41.903 25.0788 40.3149 24.1271C38.7269 23.1754 37.5496 21.667 37.0121 19.8954C36.4745 18.1238 36.6151 16.2155 37.4065 14.5418C38.198 12.8681 39.5836 11.5486 41.294 10.84C42.1991 10.465 43.1693 10.272 44.149 10.272ZM44.149 22.704C44.1457 23.2487 43.9266 23.7699 43.5396 24.1533C43.1527 24.5367 42.6295 24.7511 42.0848 24.7495C41.5401 24.7478 41.0182 24.5302 40.6336 24.1445C40.249 23.7587 40.033 23.2362 40.033 22.6915C40.033 22.1467 40.249 21.6242 40.6336 21.2385C41.0182 20.8527 41.5401 20.6351 42.0848 20.6335C42.6295 20.6318 43.1527 20.8462 43.5396 21.2296C43.9266 21.6131 44.1457 22.1342 44.149 22.679V22.704ZM39.176 27.604H49.122V30.09H39.176V27.604ZM71.002 30.09H68.516V28.311C66.9126 29.4333 65.0032 30.0365 63.046 30.039C61.3769 30.0502 59.7318 29.6413 58.2623 28.8498C56.7928 28.0582 55.5461 26.9096 54.6371 25.5097C53.7281 24.1098 53.186 22.5036 53.0608 20.8392C52.9356 19.1747 53.2313 17.5056 53.9207 15.9854C54.61 14.4653 55.6709 13.1431 57.0055 12.1407C58.3401 11.1382 59.9055 10.4878 61.5575 10.2493C63.2095 10.0107 64.895 10.1918 66.4586 10.7758C68.0223 11.3598 69.4138 12.3279 70.505 13.591L68.677 15.22C67.8474 14.2919 66.7987 13.5862 65.6265 13.1672C64.4544 12.7482 63.196 12.6292 61.966 12.8211C60.7361 13.013 59.5737 13.5097 58.5849 14.2659C57.5961 15.022 56.8122 16.0137 56.3048 17.1504C55.7974 18.287 55.5825 19.5327 55.6797 20.7737C55.777 22.0147 56.1832 23.2116 56.8615 24.2554C57.5398 25.2992 58.4686 26.1566 59.5631 26.7495C60.6577 27.3424 61.8832 27.652 63.128 27.65C64.1611 27.6521 65.1824 27.4311 66.1222 27.0021C67.062 26.573 67.898 25.946 68.573 25.164H61.865V22.679H71.028L71.002 30.09ZM80.152 10.323C79.9295 10.7516 79.5465 11.0748 79.0867 11.2223C78.6268 11.3697 78.1273 11.3294 77.697 11.1102C77.2667 10.8909 76.9406 10.5104 76.7896 10.0517C76.6386 9.593 76.6751 9.0932 76.8911 8.66126C77.1071 8.22932 77.485 7.90025 77.9426 7.74579C78.4001 7.59133 78.9002 7.62399 79.3338 7.83666C79.7674 8.04932 80.0993 8.42475 80.2572 8.88111C80.4152 9.33748 80.3864 9.83778 80.177 10.273L80.152 10.323ZM80.152 22.755C79.9839 23.2264 79.6366 23.6124 79.1855 23.8292C78.7344 24.046 78.216 24.0761 77.7428 23.9129C77.2697 23.7497 76.8801 23.4064 76.6586 22.9576C76.4371 22.5088 76.4016 21.9907 76.5599 21.5159C76.7182 21.0411 77.0574 20.6479 77.5039 20.4218C77.9503 20.1956 78.468 20.1548 78.9444 20.3081C79.4209 20.4614 79.8176 20.7965 80.0483 21.2406C80.2791 21.6847 80.3254 22.202 80.177 22.68L80.152 22.755ZM75.179 27.655H85.128V30.141H75.179V27.655ZM90.259 10.275H92.745V30.039H90.26L90.259 10.275ZM96.189 10.275H98.675C98.803 10.2614 98.932 10.2614 99.06 10.275C100.101 10.162 101.155 10.2696 102.152 10.5908C103.149 10.912 104.067 11.4395 104.846 12.139C105.626 12.8386 106.249 13.6945 106.676 14.6509C107.103 15.6074 107.323 16.6431 107.323 17.6905C107.323 18.7379 107.103 19.7735 106.676 20.73C106.249 21.6865 105.626 22.5423 104.846 23.2419C104.067 23.9414 103.149 24.469 102.152 24.7901C101.155 25.1113 100.101 25.2189 99.06 25.106H98.675V30.079H96.19L96.189 10.275ZM98.675 12.761V22.595H99.06C99.7623 22.6885 100.476 22.6308 101.155 22.4259C101.833 22.221 102.46 21.8735 102.993 21.4068C103.526 20.94 103.953 20.3647 104.245 19.7195C104.538 19.0743 104.689 18.374 104.689 17.6655C104.689 16.957 104.538 16.2567 104.245 15.6114C103.953 14.9662 103.526 14.3909 102.993 13.9242C102.46 13.4574 101.833 13.1099 101.155 12.905C100.476 12.7001 99.7623 12.6425 99.06 12.736C98.9238 12.7499 98.7896 12.779 98.66 12.823L98.675 12.761ZM116.59 11.704L114.75 13.159C114.433 12.8275 114.028 12.5933 113.582 12.4839C113.137 12.3745 112.669 12.3945 112.234 12.5415C111.8 12.6884 111.416 12.9563 111.128 13.3137C110.841 13.671 110.661 14.103 110.61 14.559V14.759C110.61 15.853 111.368 16.587 112.848 16.686C118.542 17.034 121.148 19.707 121.148 23.238V23.462C121.001 24.8593 120.456 26.185 119.577 27.2813C118.698 28.3777 117.523 29.1987 116.191 29.6466C114.86 30.0944 113.427 30.1504 112.065 29.8078C110.702 29.4652 109.467 28.7384 108.505 27.714L110.405 26.247C110.848 26.7214 111.388 27.0939 111.99 27.3386C112.591 27.5833 113.238 27.6943 113.886 27.664C115.083 27.7269 116.258 27.3252 117.166 26.5426C118.074 25.7601 118.645 24.6572 118.759 23.464V23.29C118.759 19.971 115.502 19.361 112.68 19.09C110.069 18.841 108.192 17.213 108.192 14.863V14.763C108.284 13.5396 108.842 12.3982 109.751 11.5746C110.661 10.7509 111.852 10.3079 113.078 10.337C113.728 10.3178 114.375 10.4352 114.976 10.6815C115.578 10.9279 116.121 11.2976 116.571 11.767L116.59 11.704ZM130.89 27.518C133.99 27.518 136.435 24.174 136.435 20.059V10.11H138.921V20.056C138.921 25.526 135.341 29.94 130.94 29.94C126.539 29.94 122.959 25.527 122.959 20.056V10.11H125.445V20.056C125.345 24.233 127.795 27.577 130.878 27.577L130.89 27.518ZM158.004 30.004H155.518V17.694L149.785 25.15L144.054 17.691V30.039H141.568V10.272L149.773 21.072L157.978 10.272L158.004 30.004Z" fill="#B8B6C4"/>
<path d="M14.523 7.29999C14.523 5.50633 13.8105 3.78613 12.5422 2.51782C11.2739 1.24952 9.55367 0.536987 7.76001 0.536987C5.96635 0.536987 4.24615 1.24952 2.97785 2.51782C1.70954 3.78613 0.997009 5.50633 0.997009 7.29999V27.751L6.56701 31.742V41.464H8.95401V31.742L14.524 27.751L14.523 7.29999ZM12.136 18.738L8.95301 21.921V18.936L12.136 15.753V18.738ZM3.43601 15.754L6.61901 18.937V21.921L3.43401 18.738L3.43601 15.754ZM12.136 12.372L7.76001 16.748L3.38401 12.277V9.28899L7.76001 13.665L12.136 9.28899V12.372ZM7.76001 2.92399C8.72252 2.92808 9.65714 3.24768 10.4206 3.83379C11.1841 4.41991 11.7344 5.24022 11.987 6.16899L7.76001 10.383L3.53301 6.16899C3.77693 5.23148 4.32341 4.40067 5.08769 3.80545C5.85197 3.21023 6.79132 2.88386 7.76001 2.87699V2.92399ZM3.38401 26.545V22.069L6.56701 25.252V28.808L3.38401 26.545ZM8.95401 28.82V25.252L12.137 22.069V26.532L8.95401 28.82Z" fill="#B8B6C4"/>
</svg>
