<svg width="60" height="60" viewBox="0 0 60 60" fill="none" xmlns="http://www.w3.org/2000/svg">
<path d="M60 0H0V60H60V0Z" fill="#1D1D1F"/>
<path d="M45.18 26.6241L38.229 25.6481L40.871 19.0551C40.9657 18.8286 40.986 18.5778 40.9288 18.339C40.8717 18.1002 40.7402 17.8858 40.5532 17.7266C40.3662 17.5675 40.1335 17.4719 39.8887 17.4536C39.6438 17.4354 39.3995 17.4954 39.191 17.6251L33.25 21.4061L31.096 14.6341C31.024 14.3995 30.8786 14.1942 30.6812 14.0483C30.4839 13.9024 30.2449 13.8237 29.9995 13.8237C29.7541 13.8237 29.5151 13.9024 29.3177 14.0483C29.1204 14.1942 28.975 14.3995 28.903 14.6341L26.749 21.4071L20.807 17.6241C20.5986 17.4935 20.3539 17.4326 20.1086 17.4502C19.8632 17.4679 19.6299 17.5633 19.4424 17.7225C19.2548 17.8817 19.1229 18.0965 19.0657 18.3358C19.0084 18.575 19.0288 18.8263 19.124 19.0531L21.766 25.6461L14.819 26.6241C14.5761 26.6613 14.351 26.7738 14.1755 26.9458C14 27.1178 13.8829 27.3406 13.8408 27.5827C13.7987 27.8248 13.8337 28.074 13.9409 28.2951C14.048 28.5162 14.2219 28.6981 14.438 28.8151L20.638 32.1421L15.934 37.4171C15.7847 37.5836 15.6862 37.7893 15.65 38.01C15.6138 38.2306 15.6415 38.457 15.7298 38.6625C15.8181 38.8679 15.9634 39.0438 16.1484 39.1693C16.3334 39.2949 16.5505 39.3649 16.774 39.3711C16.8604 39.3712 16.9466 39.3618 17.031 39.3431L23.891 37.8491L23.631 44.9611C23.6232 45.1183 23.6476 45.2754 23.7027 45.4228C23.7577 45.5703 23.8422 45.7049 23.9511 45.8185C24.06 45.9322 24.1909 46.0224 24.3358 46.0837C24.4807 46.145 24.6366 46.1761 24.794 46.1751C24.9691 46.1754 25.1418 46.1344 25.2982 46.0555C25.4545 45.9767 25.5901 45.8621 25.694 45.7211L30.002 40.1041L34.308 45.7241C34.4118 45.8652 34.5474 45.9798 34.7038 46.0586C34.8601 46.1375 35.0329 46.1785 35.208 46.1781C35.3654 46.1791 35.5213 46.148 35.6662 46.0867C35.8111 46.0254 35.942 45.9352 36.0509 45.8215C36.1597 45.7079 36.2443 45.5733 36.2993 45.4258C36.3544 45.2784 36.3787 45.1213 36.371 44.9641L36.111 37.8521L42.971 39.3461C43.2121 39.3958 43.4628 39.368 43.6871 39.2666C43.9115 39.1653 44.098 38.9955 44.2201 38.7817C44.3421 38.5679 44.3934 38.321 44.3667 38.0762C44.3399 37.8315 44.2364 37.6015 44.071 37.4191L39.365 32.1401L45.565 28.8131C45.7807 28.6959 45.9542 28.5139 46.061 28.2929C46.1678 28.0718 46.2026 27.8228 46.1604 27.581C46.1182 27.3391 46.0012 27.1166 45.8258 26.9447C45.6505 26.7729 45.4256 26.6604 45.183 26.6231L45.18 26.6241ZM35.213 33.5241L31.934 32.8041L32.058 36.2041L29.999 33.5191L27.94 36.2041L28.064 32.8041L24.785 33.5181L27.034 30.9951L24.069 29.4051L27.391 28.9391L26.124 25.7871L28.964 27.5951L29.995 24.3581L31.024 27.5961L33.864 25.7881L32.601 28.9391L35.923 29.4051L32.958 30.9951L35.213 33.5241Z" fill="white"/>
</svg>
