<svg width="42" height="42" viewBox="0 0 42 42" fill="none" xmlns="http://www.w3.org/2000/svg">
<path d="M21 42C32.598 42 42 32.598 42 21C42 9.40202 32.598 0 21 0C9.40202 0 0 9.40202 0 21C0 32.598 9.40202 42 21 42Z" fill="#1D1D1F"/>
<path d="M24.866 22.038L25.327 19.031H22.442V17.08C22.421 16.8548 22.4512 16.6277 22.5303 16.4158C22.6095 16.2039 22.7355 16.0127 22.899 15.8564C23.0625 15.7001 23.2593 15.5828 23.4745 15.5133C23.6898 15.4438 23.918 15.4238 24.142 15.455H25.454V12.892C24.6823 12.7684 23.9025 12.7016 23.121 12.692C22.5844 12.6512 22.0453 12.7288 21.542 12.9195C21.0388 13.1102 20.5836 13.4091 20.2087 13.7953C19.8338 14.1814 19.5484 14.6453 19.3727 15.154C19.197 15.6627 19.1353 16.2038 19.192 16.739V19.031H16.55V22.038H19.191V29.307H22.442V22.038H24.866Z" fill="white"/>
</svg>
