<svg width="42" height="42" viewBox="0 0 42 42" fill="none" xmlns="http://www.w3.org/2000/svg">
<path d="M21 42C32.598 42 42 32.598 42 21C42 9.40202 32.598 0 21 0C9.40202 0 0 9.40202 0 21C0 32.598 9.40202 42 21 42Z" fill="#1D1D1F"/>
<path d="M21.002 17.271C20.2646 17.271 19.5437 17.4897 18.9306 17.8993C18.3174 18.3089 17.8395 18.8911 17.5571 19.5723C17.2748 20.2535 17.2008 21.0031 17.3444 21.7264C17.4881 22.4497 17.8429 23.1141 18.3641 23.6358C18.8853 24.1574 19.5495 24.5128 20.2727 24.657C20.9958 24.8012 21.7455 24.7278 22.4269 24.446C23.1084 24.1643 23.691 23.6868 24.1011 23.0739C24.5112 22.4611 24.7304 21.7404 24.731 21.003C24.7322 20.5129 24.6366 20.0273 24.4496 19.5741C24.2627 19.121 23.9881 18.7093 23.6416 18.3625C23.2952 18.0158 22.8836 17.7409 22.4306 17.5536C21.9777 17.3662 21.4922 17.2702 21.002 17.271ZM21.002 23.424C20.5224 23.424 20.0537 23.2818 19.655 23.0153C19.2563 22.7488 18.9456 22.3701 18.7622 21.927C18.5788 21.4839 18.531 20.9963 18.6248 20.526C18.7186 20.0557 18.9497 19.6238 19.289 19.2849C19.6283 18.9461 20.0605 18.7154 20.5309 18.6222C21.0013 18.529 21.4888 18.5775 21.9317 18.7614C22.3746 18.9453 22.7529 19.2565 23.0189 19.6555C23.2849 20.0545 23.4266 20.5235 23.426 21.003C23.4239 21.645 23.1677 22.26 22.7135 22.7137C22.2593 23.1673 21.6439 23.4227 21.002 23.424ZM25.753 17.118C25.753 17.2901 25.702 17.4583 25.6064 17.6014C25.5108 17.7444 25.3749 17.856 25.2159 17.9218C25.057 17.9877 24.882 18.0049 24.7133 17.9713C24.5445 17.9377 24.3895 17.8549 24.2678 17.7332C24.1461 17.6115 24.0633 17.4565 24.0297 17.2878C23.9961 17.119 24.0134 16.9441 24.0792 16.7851C24.1451 16.6261 24.2566 16.4902 24.3996 16.3947C24.5427 16.2991 24.7109 16.248 24.883 16.248C24.9973 16.2478 25.1106 16.2701 25.2162 16.3137C25.3219 16.3573 25.4179 16.4214 25.4988 16.5023C25.5796 16.5831 25.6437 16.6791 25.6873 16.7848C25.7309 16.8905 25.7533 17.0037 25.753 17.118ZM28.223 18.001C28.2473 16.8704 27.8251 15.7757 27.048 14.954C26.2247 14.1801 25.1317 13.7585 24.002 13.779C22.802 13.711 19.202 13.711 18.002 13.779C16.8722 13.7568 15.7786 14.1774 14.955 14.951C14.1788 15.7734 13.7562 16.8674 13.778 17.998C13.71 19.198 13.71 22.798 13.778 23.998C13.7537 25.1287 14.1759 26.2234 14.953 27.045C15.7772 27.8195 16.8712 28.2415 18.002 28.221C19.202 28.289 22.802 28.289 24.002 28.221C25.1327 28.2453 26.2274 27.8231 27.049 27.046C27.8218 26.2234 28.243 25.1316 28.223 24.003C28.291 22.798 28.291 19.203 28.223 18.003V18.001ZM26.672 25.287C26.5486 25.5998 26.3622 25.8838 26.1245 26.1215C25.8868 26.3593 25.6027 26.5456 25.29 26.669C23.8806 26.9583 22.4386 27.0566 21.003 26.961C19.5674 27.055 18.1256 26.9568 16.716 26.669C16.4033 26.5456 16.1192 26.3593 15.8815 26.1215C15.6437 25.8838 15.4574 25.5998 15.334 25.287C15.0446 23.8786 14.9461 22.4377 15.041 21.003C14.947 19.5674 15.0452 18.1256 15.333 16.716C15.4564 16.4033 15.6427 16.1192 15.8805 15.8815C16.1182 15.6438 16.4023 15.4574 16.715 15.334C18.1242 15.0434 19.5662 14.9438 21.002 15.038C22.4376 14.944 23.8794 15.0422 25.289 15.33C25.6017 15.4534 25.8858 15.6398 26.1235 15.8775C26.3612 16.1152 26.5476 16.3993 26.671 16.712C26.9603 18.1214 27.0585 19.5634 26.963 20.999C27.0587 22.435 26.9605 23.8773 26.671 25.287H26.672Z" fill="white"/>
</svg>
