<svg width="42" height="42" viewBox="0 0 42 42" fill="none" xmlns="http://www.w3.org/2000/svg">
<path d="M21 42C32.598 42 42 32.598 42 21C42 9.40202 32.598 0 21 0C9.40202 0 0 9.40202 0 21C0 32.598 9.40202 42 21 42Z" fill="#1D1D1F"/>
<path d="M16.516 28.7089H13.259V18.2209H16.516V28.7089ZM14.886 16.7899C14.5096 16.7927 14.1409 16.6836 13.8266 16.4766C13.5123 16.2695 13.2666 15.9737 13.1207 15.6268C12.9747 15.2799 12.9351 14.8974 13.0068 14.5279C13.0785 14.1584 13.2584 13.8186 13.5235 13.5515C13.7887 13.2843 14.1272 13.102 14.4961 13.0275C14.8651 12.9531 15.2478 12.9899 15.5958 13.1333C15.9438 13.2767 16.2414 13.5202 16.4508 13.8329C16.6602 14.1457 16.772 14.5136 16.772 14.8899C16.772 15.3914 16.5737 15.8726 16.2204 16.2285C15.8672 16.5844 15.3875 16.7862 14.886 16.7899ZM28.706 28.7089H25.456V23.6039C25.456 22.3869 25.431 20.8269 23.763 20.8269C22.07 20.8269 21.81 22.1489 21.81 23.5169V28.7099H18.557V18.2209H21.68V19.6519H21.726C22.0383 19.1171 22.4899 18.6771 23.0327 18.3787C23.5755 18.0804 24.1891 17.935 24.808 17.9579C28.108 17.9579 28.708 20.1289 28.708 22.9479V28.7089H28.706Z" fill="white"/>
</svg>
