<svg width="60" height="60" viewBox="0 0 60 60" fill="none" xmlns="http://www.w3.org/2000/svg">
<path d="M60 0H0V60H60V0Z" fill="#1D1D1F"/>
<path d="M21.912 32.0221H17.868C17.3317 32.0221 16.8174 32.2352 16.4382 32.6144C16.059 32.9936 15.846 33.5079 15.846 34.0441V38.0901C15.846 38.6264 16.059 39.1407 16.4382 39.5199C16.8174 39.8991 17.3317 40.1121 17.868 40.1121H21.912C22.4483 40.1121 22.9626 39.8991 23.3418 39.5199C23.721 39.1407 23.934 38.6264 23.934 38.0901V34.0461C23.9343 33.7804 23.8822 33.5173 23.7807 33.2717C23.6792 33.0262 23.5303 32.803 23.3425 32.6151C23.1547 32.4271 22.9317 32.278 22.6863 32.1762C22.4408 32.0745 22.1777 32.0221 21.912 32.0221ZM32.022 32.0221H27.978C27.7125 32.0221 27.4495 32.0744 27.2042 32.1761C26.9589 32.2777 26.736 32.4266 26.5482 32.6144C26.3605 32.8021 26.2115 33.025 26.1099 33.2703C26.0083 33.5157 25.956 33.7786 25.956 34.0441V38.0901C25.956 38.3557 26.0083 38.6186 26.1099 38.8639C26.2115 39.1092 26.3605 39.3321 26.5482 39.5199C26.736 39.7077 26.9589 39.8566 27.2042 39.9582C27.4495 40.0598 27.7125 40.1121 27.978 40.1121H32.022C32.2877 40.1124 32.5509 40.0603 32.7964 39.9588C33.042 39.8573 33.2651 39.7084 33.4531 39.5206C33.641 39.3328 33.7902 39.1098 33.8919 38.8644C33.9936 38.6189 34.046 38.3558 34.046 38.0901V34.0461C34.0463 33.7803 33.9941 33.517 33.8925 33.2713C33.7909 33.0256 33.6418 32.8024 33.4538 32.6144C33.2658 32.4264 33.0426 32.2773 32.7969 32.1757C32.5512 32.074 32.2879 32.0219 32.022 32.0221ZM42.132 32.0221H38.088C37.5517 32.0221 37.0374 32.2352 36.6582 32.6144C36.279 32.9936 36.066 33.5079 36.066 34.0441V38.0901C36.066 38.6264 36.279 39.1407 36.6582 39.5199C37.0374 39.8991 37.5517 40.1121 38.088 40.1121H42.132C42.6683 40.1121 43.1826 39.8991 43.5618 39.5199C43.941 39.1407 44.154 38.6264 44.154 38.0901V34.0461C44.1543 33.7804 44.1022 33.5173 44.0007 33.2717C43.8992 33.0262 43.7503 32.803 43.5625 32.6151C43.3747 32.4271 43.1517 32.278 42.9063 32.1762C42.6608 32.0745 42.3977 32.0221 42.132 32.0221ZM21.912 19.8901H17.868C17.6025 19.8901 17.3395 19.9424 17.0942 20.0441C16.8489 20.1457 16.626 20.2946 16.4382 20.4824C16.2505 20.6701 16.1015 20.893 15.9999 21.1384C15.8983 21.3837 15.846 21.6466 15.846 21.9121V25.9561C15.846 26.4924 16.059 27.0067 16.4382 27.3859C16.8174 27.7651 17.3317 27.9781 17.868 27.9781H21.912C22.4483 27.9781 22.9626 27.7651 23.3418 27.3859C23.721 27.0067 23.934 26.4924 23.934 25.9561V21.9121C23.934 21.6466 23.8817 21.3837 23.7801 21.1384C23.6785 20.893 23.5295 20.6701 23.3418 20.4824C23.154 20.2946 22.9311 20.1457 22.6858 20.0441C22.4405 19.9424 22.1775 19.8901 21.912 19.8901ZM32.022 19.8901H27.978C27.7125 19.8901 27.4495 19.9424 27.2042 20.0441C26.9589 20.1457 26.736 20.2946 26.5482 20.4824C26.3605 20.6701 26.2115 20.893 26.1099 21.1384C26.0083 21.3837 25.956 21.6466 25.956 21.9121V25.9561C25.956 26.2217 26.0083 26.4846 26.1099 26.7299C26.2115 26.9752 26.3605 27.1982 26.5482 27.3859C26.736 27.5737 26.9589 27.7226 27.2042 27.8242C27.4495 27.9258 27.7125 27.9781 27.978 27.9781H32.022C32.5583 27.9781 33.0726 27.7651 33.4518 27.3859C33.831 27.0067 34.044 26.4924 34.044 25.9561V21.9121C34.044 21.6466 33.9917 21.3837 33.8901 21.1384C33.7885 20.893 33.6395 20.6701 33.4518 20.4824C33.264 20.2946 33.0411 20.1457 32.7958 20.0441C32.5505 19.9424 32.2875 19.8901 32.022 19.8901ZM42.132 19.8901H38.088C37.8225 19.8901 37.5595 19.9424 37.3142 20.0441C37.0689 20.1457 36.846 20.2946 36.6582 20.4824C36.4705 20.6701 36.3215 20.893 36.2199 21.1384C36.1183 21.3837 36.066 21.6466 36.066 21.9121V25.9561C36.066 26.4924 36.279 27.0067 36.6582 27.3859C37.0374 27.7651 37.5517 27.9781 38.088 27.9781H42.132C42.6683 27.9781 43.1826 27.7651 43.5618 27.3859C43.941 27.0067 44.154 26.4924 44.154 25.9561V21.9121C44.154 21.6466 44.1017 21.3837 44.0001 21.1384C43.8985 20.893 43.7495 20.6701 43.5618 20.4824C43.374 20.2946 43.1511 20.1457 42.9058 20.0441C42.6605 19.9424 42.3975 19.8901 42.132 19.8901Z" fill="white"/>
</svg>
