<svg width="60" height="60" viewBox="0 0 60 60" fill="none" xmlns="http://www.w3.org/2000/svg">
<path d="M60 0H0V60H60V0Z" fill="#1D1D1F"/>
<path d="M34.044 34.0442H25.956C25.4198 34.0442 24.9055 34.2572 24.5263 34.6364C24.1471 35.0156 23.934 35.53 23.934 36.0662V44.1542C23.934 44.6905 24.1471 45.2048 24.5263 45.584C24.9055 45.9632 25.4198 46.1762 25.956 46.1762H34.044C34.5803 46.1762 35.0946 45.9632 35.4738 45.584C35.853 45.2048 36.066 44.6905 36.066 44.1542V36.0662C36.066 35.53 35.853 35.0156 35.4738 34.6364C35.0946 34.2572 34.5803 34.0442 34.044 34.0442ZM21.912 15.8462C21.912 15.31 21.699 14.7956 21.3198 14.4164C20.9406 14.0373 20.4263 13.8242 19.89 13.8242H11.802C11.2658 13.8242 10.7515 14.0373 10.3723 14.4164C9.99306 14.7956 9.78003 15.31 9.78003 15.8462V23.9342C9.78003 24.4705 9.99306 24.9848 10.3723 25.364C10.7515 25.7432 11.2658 25.9562 11.802 25.9562H17.85L22.473 34.0462C22.8253 33.4334 23.3326 32.924 23.9439 32.5691C24.5552 32.2142 25.2492 32.0263 25.956 32.0242H25.974L21.912 24.9142V21.9142H36.066V17.8682H21.912V15.8462ZM48.198 13.8242H40.11C39.5738 13.8242 39.0595 14.0373 38.6803 14.4164C38.3011 14.7956 38.088 15.31 38.088 15.8462V23.9342C38.088 24.4705 38.3011 24.9848 38.6803 25.364C39.0595 25.7432 39.5738 25.9562 40.11 25.9562H48.198C48.7343 25.9562 49.2486 25.7432 49.6278 25.364C50.007 24.9848 50.22 24.4705 50.22 23.9342V15.8462C50.22 15.31 50.007 14.7956 49.6278 14.4164C49.2486 14.0373 48.7343 13.8242 48.198 13.8242V13.8242Z" fill="white"/>
</svg>
