<svg width="42" height="42" viewBox="0 0 42 42" fill="none" xmlns="http://www.w3.org/2000/svg">
<path d="M21 42C32.598 42 42 32.598 42 21C42 9.40202 32.598 0 21 0C9.40202 0 0 9.40202 0 21C0 32.598 9.40202 42 21 42Z" fill="#1D1D1F"/>
<path d="M27.908 17.3631C27.919 17.5111 27.919 17.6631 27.919 17.8061C27.9278 19.0809 27.6832 20.3448 27.1993 21.5243C26.7155 22.7037 26.0022 23.7753 25.1007 24.6768C24.1993 25.5783 23.1277 26.2916 21.9482 26.7754C20.7687 27.2592 19.5048 27.5039 18.23 27.4951C16.3758 27.4999 14.5596 26.969 13 25.9661C13.2729 25.9961 13.5474 26.0101 13.822 26.0081C15.3548 26.012 16.8442 25.4994 18.05 24.5531C17.3393 24.5402 16.6505 24.3056 16.0796 23.8821C15.5088 23.4587 15.0845 22.8675 14.866 22.1911C15.0787 22.2249 15.2936 22.2426 15.509 22.2441C15.8127 22.2435 16.1151 22.2046 16.409 22.1281C15.6373 21.9728 14.9432 21.555 14.4448 20.9457C13.9463 20.3364 13.6743 19.5733 13.675 18.7861V18.7441C14.1468 19.0073 14.6741 19.1553 15.214 19.1761C14.4903 18.694 13.978 17.9536 13.7821 17.1063C13.5862 16.2591 13.7214 15.369 14.16 14.6181C15.0155 15.6708 16.0826 16.532 17.2923 17.1459C18.502 17.7597 19.8272 18.1124 21.182 18.1811C21.1275 17.9246 21.0993 17.6633 21.098 17.4011C21.0989 16.7183 21.3049 16.0515 21.6893 15.4871C22.0736 14.9227 22.6186 14.4867 23.2536 14.2356C23.8885 13.9846 24.5843 13.93 25.2507 14.0789C25.9171 14.2279 26.5233 14.5735 26.991 15.0711C27.7535 14.9244 28.4847 14.6462 29.152 14.2491C28.8971 15.0365 28.3638 15.7038 27.652 16.1261C28.3283 16.0492 28.9893 15.8715 29.613 15.5991C29.1468 16.278 28.5693 16.8734 27.905 17.3601L27.908 17.3631Z" fill="white"/>
</svg>
